<svg xmlns="http://www.w3.org/2000/svg" width="14" height="14" viewBox="0 0 14 14">
  <path id="Icon_ionic-ios-close-circle" data-name="Icon ionic-ios-close-circle" d="M10.375,3.375a7,7,0,1,0,7,7A7,7,0,0,0,10.375,3.375Zm1.774,9.534-1.774-1.774L8.6,12.909a.538.538,0,1,1-.761-.761l1.774-1.774L7.841,8.6A.538.538,0,0,1,8.6,7.841l1.774,1.774,1.774-1.774a.538.538,0,0,1,.761.761l-1.774,1.774,1.774,1.774a.54.54,0,0,1,0,.761A.534.534,0,0,1,12.149,12.909Z" transform="translate(-3.375 -3.375)" fill="#fff"/>
</svg>
