<svg xmlns="http://www.w3.org/2000/svg" width="10"  viewBox="0 0 18.774 18.774">
  <path id="Icon_awesome-plus" data-name="Icon awesome-plus" d="M17.433,9.625H11.4V3.591A1.341,1.341,0,0,0,10.057,2.25H8.716A1.341,1.341,0,0,0,7.375,3.591V9.625H1.341A1.341,1.341,0,0,0,0,10.966v1.341a1.341,1.341,0,0,0,1.341,1.341H7.375v6.034a1.341,1.341,0,0,0,1.341,1.341h1.341A1.341,1.341,0,0,0,11.4,19.683V13.648h6.034a1.341,1.341,0,0,0,1.341-1.341V10.966A1.341,1.341,0,0,0,17.433,9.625Z" transform="translate(0 -2.25)" fill="#ea9725"/>
</svg>
