<svg xmlns="http://www.w3.org/2000/svg" width="12"  viewBox="0 0 20 20">
  <g id="Gruppe_74" data-name="Gruppe 74" transform="translate(-39 -573)">
    <circle id="Ellipse_45" data-name="Ellipse 45" cx="10" cy="10" r="10" transform="translate(39 573)" fill="#fff"/>
    <path id="Icon_awesome-plus" data-name="Icon awesome-plus" d="M9.188,6.137H6.007V2.957A.707.707,0,0,0,5.3,2.25H4.594a.707.707,0,0,0-.707.707v3.18H.707A.707.707,0,0,0,0,6.844v.707a.707.707,0,0,0,.707.707h3.18v3.18a.707.707,0,0,0,.707.707H5.3a.707.707,0,0,0,.707-.707V8.257h3.18a.707.707,0,0,0,.707-.707V6.844A.707.707,0,0,0,9.188,6.137Z" transform="translate(44 575.75)" fill="#999999"/>
  </g>
</svg>
