<svg xmlns="http://www.w3.org/2000/svg" width="8.823" height="11.029" viewBox="0 0 8.823 11.029">
  <path id="Icon_awesome-tags" data-name="Icon awesome-tags" d="M8.581,3.894,4.93.242A.827.827,0,0,0,4.345,0H.827A.827.827,0,0,0,0,.827V4.345a.827.827,0,0,0,.242.585L3.894,8.581a.827.827,0,0,0,1.17,0L8.581,5.064a.827.827,0,0,0,0-1.17ZM1.93,2.757a.827.827,0,1,1,.827-.827A.827.827,0,0,1,1.93,2.757Zm8.857,2.306L7.269,8.581a.827.827,0,0,1-1.17,0l-.006-.006,3-3a1.551,1.551,0,0,0,0-2.193L5.711,0h.84a.827.827,0,0,1,.585.242l3.651,3.651a.827.827,0,0,1,0,1.17Z" transform="translate(8.823) rotate(90)" fill="#c7c7c7"/>
</svg>
