<svg xmlns="http://www.w3.org/2000/svg" width="29.25" height="29.25" viewBox="0 0 29.25 29.25">
  <g id="Gruppe_89" data-name="Gruppe 89" transform="translate(13657 9909.526)">
    <g id="Ellipse_48" data-name="Ellipse 48" transform="translate(-13656 -9909)" fill="#fff" stroke="#707070" stroke-width="1">
      <circle cx="13.5" cy="13.5" r="13.5" stroke="none"/>
      <circle cx="13.5" cy="13.5" r="13" fill="none"/>
    </g>
    <path id="Icon_ionic-ios-close-circle" data-name="Icon ionic-ios-close-circle" d="M18,3.375A14.625,14.625,0,1,0,32.625,18,14.623,14.623,0,0,0,18,3.375Zm3.705,19.92L18,19.589l-3.705,3.705a1.124,1.124,0,1,1-1.589-1.589L16.411,18l-3.705-3.705a1.124,1.124,0,0,1,1.589-1.589L18,16.411l3.705-3.705a1.124,1.124,0,1,1,1.589,1.589L19.589,18l3.705,3.705a1.129,1.129,0,0,1,0,1.589A1.116,1.116,0,0,1,21.705,23.295Z" transform="translate(-13660.375 -9912.901)" fill="#999"/>
  </g>
</svg>
