<svg xmlns="http://www.w3.org/2000/svg" xmlns:xlink="http://www.w3.org/1999/xlink" width="163" height="43" viewBox="0 0 163 47.002">
  <defs>
    <filter id="Schnittmenge_1" x="0" y="0" width="163"  filterUnits="userSpaceOnUse">
      <feOffset dy="2" input="SourceAlpha"/>
      <feGaussianBlur stdDeviation="3" result="blur"/>
      <feFlood flood-opacity="0.161"/>
      <feComposite operator="in" in2="blur"/>
      <feComposite in="SourceGraphic"/>
    </filter>
  </defs>
  <g id="Gruppe_73" data-name="Gruppe 73" transform="translate(7159 9396)">
    <g transform="matrix(1, 0, 0, 1, -7159, -9396)" filter="url(#Schnittmenge_1)">
      <path id="Schnittmenge_1-2" data-name="Schnittmenge 1" d="M119,437h-4V408H260v29h-4.448v-3.43a19.138,19.138,0,0,0-2.309-9.08,23.751,23.751,0,0,0-6.3-7.414,30.588,30.588,0,0,0-9.339-5,35.873,35.873,0,0,0-11.437-1.833H148.387a35.875,35.875,0,0,0-11.438,1.833,30.588,30.588,0,0,0-9.339,5,23.739,23.739,0,0,0-6.3,7.414,19.139,19.139,0,0,0-2.31,9.08V437h0Z" transform="translate(-106 -401)" fill="#fff"/>
    </g>
    <rect id="Rechteck_104" data-name="Rechteck 104" width="7" height="29" transform="translate(-7156 -9389)" fill="#fff"/>
    <rect id="Rechteck_105" data-name="Rechteck 105" width="6" height="29" transform="translate(-7006 -9389)" fill="#fff"/>
    <rect id="Rechteck_106" data-name="Rechteck 106" width="156" height="6" transform="translate(-7156 -9394)" fill="#fff"/>
  </g>
</svg>
