<svg xmlns="http://www.w3.org/2000/svg" xmlns:xlink="http://www.w3.org/1999/xlink" width="60.792" height="77.942" viewBox="0 0 60.792 77.942">
  <defs>
    <filter id="Vereinigungsmenge_15" x="0" y="0" width="60.792" height="77.942" filterUnits="userSpaceOnUse">
      <feOffset dy="1" input="SourceAlpha"/>
      <feGaussianBlur stdDeviation="1" result="blur"/>
      <feFlood flood-opacity="0.161"/>
      <feComposite operator="in" in2="blur"/>
      <feComposite in="SourceGraphic"/>
    </filter>
  </defs>
  <g id="Gruppe_42" data-name="Gruppe 42" transform="translate(-156.955 -718.968)">
    <path id="Differenzmenge_7" data-name="Differenzmenge 7" d="M17.606,41h0c-.442-.022-.889-.058-1.327-.107l7.776-10.32a11.666,11.666,0,0,1-5.13,1.205H1.124C.866,31.4.619,31,.389,30.611H13.725a11.585,11.585,0,0,1-4.6-4l-.015.009L8.927,26.3c-.126-.2-.244-.408-.353-.612L0,10.837c.179-.336.368-.668.561-.987L7.3,21.526a11.249,11.249,0,0,1,3.467-9.308L22.164,0c.265.043.527.091.78.141q.179.036.358.075l-9.07,9.727a11.715,11.715,0,0,1,4.213-.931h.061c.1,0,.206,0,.346,0s.245,0,.346,0H36.3c.217.322.426.652.62.979H23.578A11.5,11.5,0,0,1,28.846,14.6l0,0,.029.059a11.244,11.244,0,0,1,.82,1.684l7.114,14.586c-.2.328-.408.65-.621.961l-5.741-11.77,0,.074c0,.061,0,.126,0,.2A11.209,11.209,0,0,1,27.1,28.4L17.606,41Z" transform="translate(168.655 727.568)" fill="#ea9725"/>
    <g transform="matrix(1, 0, 0, 1, 156.96, 718.97)" filter="url(#Vereinigungsmenge_15)">
      <path id="Vereinigungsmenge_15-2" data-name="Vereinigungsmenge 15" d="M20.036,52.551A27.5,27.5,0,0,1,8.024,45.689a27.1,27.1,0,0,1-3.345-3.961,26.58,26.58,0,0,1-2.526-4.546,26.24,26.24,0,0,1,0-20.836A26.58,26.58,0,0,1,4.679,11.8,27.1,27.1,0,0,1,8.024,7.839,27.556,27.556,0,0,1,21.875.544a28.3,28.3,0,0,1,11.043,0,27.522,27.522,0,0,1,13.851,7.3A27.1,27.1,0,0,1,50.113,11.8a26.58,26.58,0,0,1,2.526,4.546,26.24,26.24,0,0,1,0,20.836,26.58,26.58,0,0,1-2.526,4.546,27.1,27.1,0,0,1-3.345,3.961A27.526,27.526,0,0,1,35.082,52.46l-7.5,19.482ZM23.149,6.742a21.151,21.151,0,0,0-10.654,5.629,20.894,20.894,0,0,0-2.573,3.056,20.533,20.533,0,0,0-1.943,3.508,20.306,20.306,0,0,0,0,16.078,20.524,20.524,0,0,0,1.943,3.508,20.9,20.9,0,0,0,2.573,3.057,21.171,21.171,0,0,0,10.654,5.629,21.7,21.7,0,0,0,8.494,0A21.154,21.154,0,0,0,42.3,41.578a20.9,20.9,0,0,0,2.573-3.057,20.525,20.525,0,0,0,1.943-3.508,20.306,20.306,0,0,0,0-16.078,20.533,20.533,0,0,0-1.943-3.508A20.894,20.894,0,0,0,42.3,12.371,21.17,21.17,0,0,0,31.643,6.742a21.7,21.7,0,0,0-8.494,0Z" transform="translate(3 2)" fill="#3c3c3c"/>
    </g>
  </g>
</svg>
