<svg id="Komponente_2_1" data-name="Komponente 2 – 1" xmlns="http://www.w3.org/2000/svg" xmlns:xlink="http://www.w3.org/1999/xlink" width="157.157" height="52.807" viewBox="0 0 157.157 52.807">
  <defs>
    <filter id="Vereinigungsmenge_12" x="92.112" y="5.889" width="37.164" height="46.918" filterUnits="userSpaceOnUse">
      <feOffset dy="1" input="SourceAlpha"/>
      <feGaussianBlur stdDeviation="1" result="blur"/>
      <feFlood flood-opacity="0.161"/>
      <feComposite operator="in" in2="blur"/>
      <feComposite in="SourceGraphic"/>
    </filter>
  </defs>
  <g id="Komponente_1_16" data-name="Komponente 1 – 16">
    <path id="Vereinigungsmenge_10" data-name="Vereinigungsmenge 10" d="M13.546,34.543,5.552,25.4v9.577H0V.354L5.552,0V21.7l8.374-9.207h6.848L10.965,23.411l10,11.264,9.479,10.319-7.148.826ZM69.724,44.673V13.047h5.136v2.869a7.953,7.953,0,0,1,6.616-3.424c5.69,0,10.687,4.765,10.687,11.521s-5,11.521-10.687,11.521a7.83,7.83,0,0,1-6.2-2.822V45.619Zm5.552-23.945V27.3A6.078,6.078,0,0,0,80.5,30.351c3.748,0,6.015-2.73,6.015-6.338s-2.267-6.339-6.015-6.339A6.078,6.078,0,0,0,75.277,20.728ZM44.509,24.013c0-6.431,4.673-11.521,11.012-11.521A11.03,11.03,0,0,1,66.579,23.92c0,.416,0,1.249-.047,2.082H50.154a6.259,6.259,0,0,0,6.154,4.442,8.828,8.828,0,0,0,6.015-2.221L65.1,32.387a14.046,14.046,0,0,1-8.791,3.146A11.527,11.527,0,0,1,44.509,24.013Zm5.645-2.036H61.026c-.093-1.9-1.851-4.442-5.506-4.442A5.047,5.047,0,0,0,50.154,21.977Zm-29.38,2.036c0-6.431,4.673-11.521,11.012-11.521A11.03,11.03,0,0,1,42.844,23.92c0,.416,0,1.249-.047,2.082H26.419a6.259,6.259,0,0,0,6.154,4.442,8.826,8.826,0,0,0,6.014-2.221l2.776,4.164a14.046,14.046,0,0,1-8.791,3.146A11.527,11.527,0,0,1,20.774,24.013Zm5.645-2.036H37.291c-.093-1.9-1.851-4.442-5.506-4.442A5.047,5.047,0,0,0,26.419,21.977Z" fill="#535353"/>
    <path id="Pfad_26" data-name="Pfad 26" d="M12.459-103.593h5.552v-21.931l-5.552.413ZM11.58-132.6a3.633,3.633,0,0,0,3.655,3.655A3.633,3.633,0,0,0,18.89-132.6a3.633,3.633,0,0,0-3.655-3.655A3.633,3.633,0,0,0,11.58-132.6Zm10.179,12.076h4.3v9.716c0,4.673,3.239,7.773,7.5,7.773a9.989,9.989,0,0,0,5.274-1.434L36.8-109.007a4.395,4.395,0,0,1-2.313.787c-1.481,0-2.869-.787-2.869-3.47v-8.837H38.23v-5H31.614v-6.524H26.062v6.524h-4.3Z" transform="translate(117.509 140.01)" fill="#535353"/>
    <path id="Differenzmenge_5" data-name="Differenzmenge 5" d="M10.014,23.319h0c-.251-.013-.505-.033-.755-.061l4.423-5.87a6.635,6.635,0,0,1-2.918.685H.64c-.147-.217-.287-.44-.418-.664H7.806A6.589,6.589,0,0,1,5.19,15.133l-.009.005-.1-.18c-.071-.115-.139-.232-.2-.348L0,6.164c.1-.191.209-.38.319-.561l3.834,6.641A6.4,6.4,0,0,1,6.126,6.949L12.606,0c.151.024.3.051.443.08l.2.043L8.094,5.655a6.663,6.663,0,0,1,2.4-.53h.035c.057,0,.117,0,.2,0s.14,0,.2,0h9.725c.124.183.242.371.353.557H13.411a6.539,6.539,0,0,1,3,2.622h0l.016.034a6.4,6.4,0,0,1,.467.958l4.046,8.3c-.113.186-.232.37-.353.546l-3.265-6.694,0,.042c0,.035,0,.072,0,.114a6.375,6.375,0,0,1-1.911,4.556l-5.4,7.164Z" transform="translate(100.061 11.643)" fill="#ea9725"/>
    <g transform="matrix(1, 0, 0, 1, 0, 0)" filter="url(#Vereinigungsmenge_12)">
      <path id="Vereinigungsmenge_12-2" data-name="Vereinigungsmenge 12" d="M11.4,29.889a15.644,15.644,0,0,1-6.832-3.9,15.416,15.416,0,0,1-1.9-2.253,15.118,15.118,0,0,1-1.437-2.586,14.924,14.924,0,0,1,0-11.851A15.118,15.118,0,0,1,2.661,6.711a15.411,15.411,0,0,1,1.9-2.253A15.673,15.673,0,0,1,12.442.309a16.1,16.1,0,0,1,6.281,0A15.654,15.654,0,0,1,26.6,4.459a15.415,15.415,0,0,1,1.9,2.253A15.118,15.118,0,0,1,29.94,9.3a14.924,14.924,0,0,1,0,11.851A15.118,15.118,0,0,1,28.5,23.734a15.416,15.416,0,0,1-1.9,2.253,15.656,15.656,0,0,1-6.646,3.851L15.691,40.918ZM13.167,3.835a12.03,12.03,0,0,0-6.06,3.2A11.884,11.884,0,0,0,5.643,8.775a11.679,11.679,0,0,0-1.105,2,11.549,11.549,0,0,0,0,9.145,11.674,11.674,0,0,0,1.105,2,11.889,11.889,0,0,0,1.464,1.738,12.042,12.042,0,0,0,6.06,3.2,12.344,12.344,0,0,0,4.831,0,12.032,12.032,0,0,0,6.06-3.2,11.889,11.889,0,0,0,1.464-1.738,11.674,11.674,0,0,0,1.105-2,11.549,11.549,0,0,0,0-9.145,11.679,11.679,0,0,0-1.105-2,11.884,11.884,0,0,0-1.464-1.738A12.041,12.041,0,0,0,18,3.835a12.344,12.344,0,0,0-4.831,0Z" transform="translate(95.11 7.89)" fill="#535353"/>
    </g>
  </g>
  <text id="Beta" transform="translate(144.157 48.898)" fill="#ea9725" font-size="12" font-family="LucidaGrande, Lucida Grande"><tspan x="-12.352" y="0">Beta</tspan></text>
</svg>
